<?xml version="1.0" encoding="UTF-8"?>
<svg id="Camada_1" xmlns="http://www.w3.org/2000/svg" version="1.1" viewBox="0 0 800 800">
  <!-- Generator: Adobe Illustrator 29.5.1, SVG Export Plug-In . SVG Version: 2.1.0 Build 141)  -->
  <defs>
    <style>
      .st0 {
        fill: #fcfcfc;
      }

      .st1 {
        fill: #fff;
      }

      .st2 {
        display: none;
      }

      .st3 {
        fill: #3a5070;
      }

      .st4 {
        fill: #031638;
      }
    </style>
  </defs>
  <path class="st1" d="M400.98,676.58c-5.85,0-11.03-2.21-16.26-4.68-.38-.18-.71-.34-.99-.46-20.99-9.4-41.83-22.19-52.38-28.97-86.35-55.5-133.96-129.21-137.69-213.15-1.45-32.66-.81-66.09-.2-98.41.56-29.12,1.13-59.23.14-88.18l-.12-3.5,4.28-13.24,6.36-3.45c-2.55-3.02-5.15-6.53-7.04-10.1-9.37-17.75-10.32-39.96-2.61-60.96l13.21-35.99,21.79,31.17c.29.3.92.88,1.39,1.31.88.8,1.88,1.71,2.93,2.8,14.08,14.56,24.73,22.04,40.72,28.61,7.5,3.08,12.8,4.92,15.43,5.69,3.27-.74,9.32-2.53,12.83-3.57,4.35-1.29,8.1-2.4,10.91-3.03,27.94-6.25,57.11-9.42,86.67-9.42s59.2,3.22,87.38,9.57c3.1.7,6.94,1.86,11.39,3.21,3.07.93,8.29,2.52,11.31,3.24,4.5-1.38,13.81-4.98,18.36-6.99,14.9-6.57,26.26-14.54,38.91-27.35,2.54-3.62,8.7-11.78,19.71-11.78,5.15,0,10.09,1.91,13.9,5.37l4.49,4.08,1.47,5.89c3.51,14.08,6.23,30.95-.18,49.29-2.53,7.25-6.34,13.37-10.71,18.62l10.02,11.71-.06,200.74-.08.89c-3.04,33.68-11.7,64.45-25.75,91.44-30.6,58.79-87.94,108.46-170.44,147.63l-1.8.85-1.93.48c-1.74.43-3.55.65-5.38.65Z"/>
  <g id="Camada_2">
    <path class="st2" d="M475.19,200.86h-154.13v-57.96c29.32-4.11,58.82-9.12,88.62-7.94,21.41.85,42.57,5.14,63.85,7.28.55-.04,1.65.61,1.65.98v57.63h.01Z"/>
  </g>
  <g id="Camada_11" data-name="Camada_1">
    <path class="st4" d="M588.22,196.96c4.47-12.79,2.85-25.01-.35-37.85-1.31-1.19-4.17,3.85-4.89,4.59-14.1,14.47-27.46,24.44-46.11,32.66-4.62,2.04-21.87,8.99-25.89,8.98-5.13-.02-21.11-5.76-27.64-7.23-53.49-12.05-111.76-12.11-165.3-.14-6.24,1.39-24.36,7.65-28.94,7.31-4.58-.34-17.35-5.43-22.19-7.42-19.9-8.18-32.75-17.96-47.48-33.19-1.9-1.96-4.44-3.83-6.18-6.32-5.25,14.31-5.74,30.98,1.51,44.71,2.3,4.34,7.68,10.25,11.4,13.6,4,3.6,9.02,6.17,13.24,9.49l-25.06,13.59-.74,2.29c2.11,61.62-2.68,124.97.05,186.39,3.85,86.6,58.03,151.9,128.53,197.22,15.13,9.73,33.34,20.2,49.73,27.54,2.28,1.02,7.64,3.83,9.6,3.34,64.37-30.56,127.85-74.57,161.27-138.79,13.47-25.89,20.94-54.85,23.57-84.01l.06-192.45-2.79-3.26-22.26-11.85c10.78-7.69,22.32-16.21,26.86-29.2ZM503.78,572.74l-1.12-2.99v-.03s-21.42,13.46-21.42,13.46c-5.7,1.51-21.4-9.49-28.22-9.68v11.74c0,4.36,2.43,8.86,3.72,12.34.36.98.71,1.96,1.05,2.93t.01.02c.34.97.68,1.93,1.03,2.89.1.25.19.49.28.74.64,1.67,1.35,3.32,2.24,4.93l-32.18,17.41h-.02c-.22-1.78,2.28-2.86,2.88-3.96,1.93-3.55,6.6-17.72,6.6-21.39v-22.35l-38.32,21.98-37.14-21.92c-.63-.35-1.81.87-1.81,1.07,0,6.37-.62,14.33,0,20.45l-.02-.02c.55,5.43,4.05,16.5,6.6,21.4,0,.01.01.01.02.02.04.08.09.15.14.23.14.21.34.43.56.64.3.3.65.6.98.93.78.77,1.44,1.67,1.18,2.9-1.11-.52-2.25-1.05-3.4-1.58-1.17-.56-2.36-1.12-3.55-1.7-1.18-.57-2.36-1.14-3.54-1.74-1.21-.6-2.41-1.21-3.61-1.84-1.18-.61-2.35-1.24-3.5-1.88-.6-.33-1.19-.66-1.77-.99-.57-.33-1.15-.66-1.71-.99-2.25-1.33-4.43-2.7-6.46-4.12-.9-.63-2.03-1.22-2.84-1.99-.09-.08-.17-.17-.25-.26-.17-.18-.32-.37-.43-.57-.29-.45-.44-.97-.41-1.57.05-.97,3.19-7.88,3.88-9.68.2-.5,1.09-.48,1.5-1.71,2.14-6.38,1.95-15.66,2.21-22.38-.02-.01-.04-.03-.07-.05-2.08-1.35-23.75,11.45-28.14,9.73l-21.48-13.38-.02-.02c-2.11-.48-.53,3.09-3.31,1.45-.31-.18-.68-.43-1.11-.76-6.4-4.87-17.77-19.81-23.12-26.67-.22-.28-.54-.48-.86-.68-.12-.06-.24-.13-.35-.21-.11-.05-.22-.12-.32-.2-.1-.07-.2-.14-.28-.22-.13-.11-.22-.23-.3-.37-.03-.06-.06-.12-.08-.18-1.3-3.92,1.92-4.5,3.1-6.52,6.2-10.61,13.38-30.24,16.13-42.22,7.22-31.44,7.82-64.79.37-96.21,2.71-2.38,40.35,6.29,46.22,7.94,22.1,6.21,43.34,15.71,63.01,27.47,1.3.78,2.6,1.57,3.89,2.36,23.6-14.85,50.06-26.18,77.3-32.57,4.46-1.04,32.8-6.66,35.25-5.24.03.02.06.04.08.06-1.39,6.38-2.88,12.92-3.69,19.4-2.3,18.35-2.08,39.31,1.01,59.79.16,1.04.32,2.07.49,3.1.34,2.06.7,4.11,1.1,6.15,1.21,6.17,2.68,12.24,4.43,18.14,1.14,3.86,2.4,7.64,3.78,11.33.07.18.14.35.2.53,2.8,7.37,6.08,14.35,9.88,20.73,0,.01.01.01.02.02.3.5.74.89,1.21,1.26.24.19.49.38.72.58.01.01.02.02.02.02.18.14.34.3.49.46.21.24.4.49.53.79.27.6.32,1.35-.02,2.41-9.69,10.38-18.07,22.26-29.23,31.03h0ZM458.58,370.22s-.01,0-.02,0c-2.8-.61-5.59-1.39-8.37-2.35-2.78-.95-5.54-2.06-8.27-3.35-.95-.45-3.19-1.84-5.52-3.2-.31-.17-.61-.35-.92-.52-1.86-1.07-3.66-2.03-4.8-2.36-.5-.15-.87-.18-1.06-.05l-29.23,49.93h-.01s-29.9-49.66-29.9-49.66c-.04-.03-.09-.05-.13-.06-.05-.02-.1-.04-.15-.05-1.86-.48-6.34,3.44-8.32,4.46-29.23,15.18-65.6,10.96-88.65-10.72-5.43-5.1-10.11-11.17-13.8-18.17-1.62-3.08-2.98-6.24-4.08-9.45-4.21-12.2-4.74-25.17-1.77-37.63,0,0-.01-.01,0-.01,1.26-5.23,3.13-10.38,5.61-15.34.56-1.13,1.16-2.23,1.78-3.31h0c.63-1.09,1.29-2.14,1.97-3.17t0-.01c2.4-3.62,5.14-6.96,8.12-10.12,0,0-.01,0,0-.01,2.14-2.24,4.4-4.39,6.75-6.46,1.78.08,3.55.19,5.32.31.09,0,.18.01.27.02,1.11.09,2.21.18,3.31.28.11,0,.22,0,.33.03,1.08.1,2.15.21,3.23.33.14.01.27.02.41.05,4.58.52,9.13,1.23,13.62,2.15.24.04.49.09.73.15,4.55.96,9.04,2.13,13.47,3.55.57.19,1.14.37,1.71.57,1.7.56,3.39,1.17,5.07,1.83,1.68.65,3.35,1.34,5.01,2.07,1.11.49,2.21.99,3.31,1.52,1.79.86,3.55,1.75,5.27,2.67,1.71.92,3.39,1.86,5.04,2.83t.01,0c1.65.98,3.26,1.99,4.85,3.02.53.35,1.06.7,1.59,1.06,1.04.7,2.07,1.42,3.08,2.16,4.59,3.31,8.91,6.92,13.02,10.82.91.86,1.8,1.74,2.69,2.64.89.89,1.77,1.8,2.64,2.73t.01,0c.87.92,1.73,1.86,2.57,2.82,2.13,2.4,4.2,4.88,6.22,7.47h0c.68.88,1.35,1.75,2,2.61.65.85,1.28,1.7,1.9,2.55,0,.01.01.01.01.01.62.84,1.23,1.69,1.83,2.54h0c1.2,1.7,2.36,3.4,3.5,5.14,1.72,2.6,3.38,5.27,5.06,8.1l5.84,11.9h0s.01.02.01.02c.17-.6.42-1.33.73-2.14,0,0-.01,0,0-.01.38-.96.84-2.03,1.33-3.12,0,0-.01-.01,0-.01.17-.35.33-.72.5-1.08-.01-.01,0-.01,0-.01.51-1.09,1.03-2.16,1.5-3.13,0,0-.01-.01,0-.01,1.04-2.11,1.88-3.72,1.99-3.92,22.97-42.49,65.13-69.05,114.05-70.72.39-.03.72.03,1.04.13.2.07.4.16.59.27.22.11.43.24.66.37.4.23,4.8,4.37,7.31,6.8.21.2.4.39.58.56.09.09.17.17.26.26.08.08.15.15.23.23.07.07.14.14.2.2.18.18.32.32.39.4.38.43.77.88,1.16,1.37.97,1.19,1.96,2.56,2.95,4.05.2.3.41.61.61.92.39.61.79,1.23,1.17,1.87,0,.01.01.01.01.01.59.97,1.17,1.96,1.73,2.98,2.66,4.75,5.04,9.93,6.53,14.39.55,1.6.97,3.11,1.25,4.47,11.23,54.34-39.64,93.43-88.95,82.52Z"/>
    <path class="st0" d="M547.52,287.69c-.28-1.36-.7-2.86-1.24-4.46-1.49-4.46-3.87-9.64-6.53-14.39-.57-1.02-1.15-2.01-1.73-2.98,0,0-.01,0-.01-.01-.39-.63-.78-1.26-1.17-1.87-.2-.31-.41-.62-.61-.92-.99-1.49-1.99-2.86-2.95-4.05-.39-.49-.78-.94-1.16-1.37-.07-.08-.21-.22-.39-.4-.06-.06-.13-.13-.2-.2-.08-.08-.15-.15-.23-.23-.09-.09-.17-.17-.26-.26-.18-.17-.37-.36-.58-.56-2.51-2.43-6.91-6.57-7.31-6.8-.23-.13-.44-.26-.66-.37-.19-.11-.39-.2-.59-.27-.32-.12-.66-.17-1.05-.14-48.92,1.67-91.08,28.23-114.05,70.72-.11.2-.95,1.82-1.98,3.93-.01,0,0,.01,0,.01-.49.97-1,2.04-1.5,3.13,0,0-.01,0,0,.01-.17.36-.33.73-.5,1.08-.01,0,0,.01,0,.01-.5,1.09-.96,2.16-1.33,3.12-.01.01,0,.01,0,.01-.32.8-.57,1.52-.74,2.12l-5.84-11.9c-1.68-2.83-3.34-5.5-5.06-8.1-1.14-1.73-2.3-3.43-3.5-5.13h0c-.6-.86-1.21-1.7-1.83-2.55,0,0-.01,0-.01-.01-.62-.84-1.25-1.69-1.9-2.55-.65-.86-1.32-1.73-2-2.6h0c-2.02-2.6-4.09-5.08-6.22-7.48-.85-.95-1.71-1.89-2.57-2.82t-.01,0c-.87-.92-1.75-1.83-2.64-2.73-.89-.89-1.79-1.77-2.69-2.64-4.11-3.9-8.43-7.51-13.02-10.82-1.01-.74-2.04-1.46-3.08-2.16-.53-.36-1.06-.71-1.59-1.06-1.58-1.04-3.2-2.05-4.85-3.02t-.01,0c-1.64-.98-3.32-1.92-5.04-2.83-1.72-.92-3.48-1.81-5.27-2.67-1.1-.53-2.2-1.03-3.31-1.52-1.66-.73-3.33-1.42-5.01-2.07-1.68-.66-3.37-1.27-5.07-1.83-.57-.2-1.14-.38-1.71-.57-4.43-1.43-8.92-2.6-13.47-3.55-.24-.06-.49-.11-.73-.15-4.49-.92-9.03-1.63-13.62-2.15-.14-.03-.27-.04-.41-.05-1.08-.12-2.15-.23-3.23-.33-.11-.02-.22-.03-.33-.03-1.1-.1-2.2-.19-3.31-.28-.09-.01-.18-.02-.27-.02-1.77-.13-3.55-.24-5.33-.32-2.35,2.07-4.61,4.22-6.74,6.47-.01.01,0,.01,0,.01-3,3.16-5.73,6.5-8.12,10.12t0,.01c-.69,1.03-1.35,2.08-1.97,3.16h0c-.63,1.09-1.23,2.19-1.79,3.31-2.48,4.97-4.35,10.11-5.6,15.35-.01,0,0,.01,0,.01-2.98,12.46-2.45,25.42,1.77,37.63,1.1,3.21,2.46,6.37,4.08,9.45,3.69,7,8.37,13.07,13.8,18.17,23.06,21.66,59.42,25.89,88.64,10.71,1.98-1.03,6.47-4.95,8.33-4.45.05.01.1.02.15.05.04,0,.09.03.13.06l29.9,49.65,29.23-49.93c.19-.13.56-.1,1.07.06,1.14.33,2.94,1.29,4.8,2.36.31.17.61.35.92.52,2.33,1.36,4.57,2.75,5.52,3.2,2.73,1.29,5.49,2.4,8.27,3.35,2.78.95,5.57,1.73,8.37,2.35.01,0,.02,0,.02,0,49.31,10.88,100.17-28.2,88.94-82.53ZM338.62,333.7c-36.65,14.1-69.06-30.63-37.12-56.81,9.44-7.74,23.7-10.02,35.32-6.11.5.17.99.34,1.47.52.96.37,1.89.76,2.8,1.19,1.35.63,2.64,1.33,3.86,2.09,1.63,1.01,3.13,2.13,4.52,3.32.69.6,1.36,1.22,1.98,1.87,15.77,16,12.34,44.25-12.83,53.93ZM400.38,387.87l-30.67-55.68c-.27-.88.15-1.17.78-1.2h.03c.29-.02.63.03.96.09h.01c.49.1.96.24,1.28.32,9.95,2.53,14.95,7.38,20.69,15.29.33.46,1.37.72,1.87,1.5.63.98,4.56,10.8,5.42,10.14,1.25-4.33,3.3-8.53,5.98-12.29.81-1.12,1.67-2.21,2.58-3.25.61-.69,1.25-1.36,1.9-2.01,5.57-5.5,12.71-9.25,20.61-9.71l-31.44,56.8ZM511.27,308.48c-.12.54-.25,1.08-.39,1.62-.21.8-.46,1.59-.74,2.37-.19.52-.39,1.04-.61,1.55-.11.26-.22.51-.33.76-.23.51-.47,1.01-.73,1.51-.13.25-.26.49-.39.74-.41.73-.84,1.45-1.3,2.16-.3.47-.62.94-.95,1.4-.33.45-.67.91-1.03,1.35-.35.44-.71.88-1.09,1.31-.37.43-.76.85-1.16,1.26-.2.21-.4.41-.61.62-7.56,7.52-18.64,12.14-30.34,11.22-13.05-1.03-28.01-12.14-31.08-24.98-9.09-38.03,41.66-58.63,65.07-26.8,5.81,7.9,7.28,16.26,5.68,23.91Z"/>
    <path class="st3" d="M533.04,539.29c-.13-.3-.32-.55-.53-.79-.15-.16-.31-.31-.49-.46,0,0-.01,0-.02-.02-.23-.19-.48-.38-.72-.58-.47-.37-.91-.76-1.21-1.26-3.8-6.39-7.09-13.37-9.9-20.75-.06-.18-.13-.35-.2-.53-1.38-3.69-2.64-7.47-3.78-11.33-1.75-5.9-3.22-11.97-4.43-18.14-.39-2.04-.76-4.09-1.1-6.15-.17-1.03-.33-2.06-.49-3.1-3.07-20.48-3.29-41.42-.99-59.77.81-6.49,2.3-13.03,3.69-19.41-.01,0-.01-.01-.02-.01-.02-.02-.05-.04-.08-.06-2.61-1.37-30.79,4.22-35.23,5.26-27.24,6.38-53.7,17.71-77.3,32.57-.01,0-.01-.01-.02-.02-1.29-.79-2.59-1.58-3.89-2.36-19.67-11.75-40.89-21.24-62.99-27.45-5.87-1.65-43.51-10.32-46.22-7.94,7.45,31.42,6.86,64.77-.37,96.21-2.76,11.97-9.94,31.6-16.13,42.22-1.18,2.02-4.4,2.6-3.1,6.52.02.06.04.11.06.16.08.14.17.26.3.37.08.08.18.15.28.22.1.08.21.15.32.2.11.08.23.15.35.21.32.2.64.4.86.68,5.35,6.86,16.72,21.8,23.12,26.67.43.33.8.58,1.11.76,2.81,1.68,1.22-1.9,3.33-1.43l21.48,13.38.02.02c4.37,1.71,25.9-10.99,28.12-9.75.03.02.05.04.07.05l.02.02c-.26,6.72-.08,16-2.21,22.38-.41,1.23-1.3,1.2-1.5,1.71-.69,1.79-3.83,8.71-3.88,9.68-.03.59.12,1.1.39,1.55.11.2.26.39.43.57.08.09.16.18.25.26.81.77,1.94,1.36,2.84,1.99,2.03,1.42,4.21,2.79,6.46,4.12.56.33,1.14.66,1.71.99.58.33,1.17.66,1.77.99,1.15.64,2.32,1.27,3.5,1.88,1.2.63,2.4,1.24,3.61,1.84,1.18.6,2.36,1.17,3.54,1.74,1.19.58,2.38,1.14,3.55,1.7,1.16.54,2.3,1.08,3.42,1.6.27-1.25-.42-2.15-1.2-2.92-.33-.33-.68-.63-.98-.93-.22-.22-.41-.43-.56-.64-.05-.08-.1-.15-.14-.23-2.56-4.91-6.05-15.98-6.6-21.4l.02.02c-.62-6.12,0-14.08,0-20.45,0-.19,1.18-1.42,1.81-1.07l37.14,21.92,38.3-21.97h.02s0,22.34,0,22.34c0,3.67-4.67,17.84-6.6,21.39-.6,1.09-3.07,2.17-2.88,3.94v.03l32.2-17.42c-.89-1.62-1.61-3.28-2.26-4.95-.09-.25-.18-.49-.28-.74-.35-.96-.69-1.92-1.03-2.89t-.01-.02c-.33-.97-.67-1.94-1.03-2.91-1.29-3.48-3.72-7.98-3.72-12.34v-11.74c6.82.19,22.52,11.19,28.22,9.68l21.4-13.45h.01s1.12,2.98,1.12,2.98v.03c11.17-8.78,19.56-20.66,29.25-31.04.34-1.07.28-1.83,0-2.43ZM312.51,554.68c-.16-.11-.36-.24-.58-.38,0,0-.01,0-.01-.01-.15-.1-.32-.21-.49-.33h-.01c-.17-.12-.36-.25-.55-.38-2.04-1.41-4.9-3.46-5.3-3.83-4.54-4.22-8.06-11.45-10.13-17.47-.14-.41-.27-.81-.4-1.2-1.78-5.55-2.76-12.97-1.92-19.39.14-1.03.83-1.06,1.25-1.28h.01c.13-.09.24-.18.28-.35.64-2.37.68-5.4,1.37-8.17h0c.17-.69.38-1.37.66-2.01h0c.09-.22.19-.43.29-.64.11-.08.33-.06.65.05,3.55,1.2,19.33,13.37,24.08,14.9.24.08.46.13.64.15.27-.09.68-.24,1.2-.44,0,0,.01,0,.01,0,.17-.07.35-.15.55-.22s.4-.16.62-.25c.21-.09.44-.18.68-.28.47-.2.99-.41,1.53-.63.13-.05.27-.11.41-.17.37-.16.76-.32,1.16-.49.34-.14.69-.28,1.04-.43.31-.13.62-.26.94-.39.79-.33,1.61-.67,2.43-1.01.28-.11.56-.23.84-.34.1-.04.2-.08.29-.12.4-.17.8-.33,1.2-.49.55-.22,1.09-.44,1.63-.66.32-.13.64-.25.96-.37.81-.32,1.59-.63,2.34-.91.29-.11.58-.22.87-.32t.01-.01c.28-.1.56-.21.83-.3.01,0,.01-.01.01-.01.27-.09.53-.18.79-.27.13-.05.26-.09.38-.13,1.89-.64,3.28-1,3.76-.86.03.01.06.02.09.03.01.01.03.02.04.03-.05,1.88.14,3.79,0,5.67-.15,2-.44,4.06-.86,6.13-.2,1.04-.45,2.09-.73,3.14-.28,1.04-.59,2.09-.92,3.13h0c-.35,1.05-.71,2.09-1.11,3.12,0,0,0,.01,0,.01-.41,1.04-.84,2.06-1.29,3.08,0,0,.01,0,0,.01-2.31,5.1-5.34,9.95-8.98,14.06h0c-1.11,1.25-2.25,2.41-3.45,3.5-1.61,1.45-3.3,2.76-5.08,3.91,0,.01,0,0,0,0-.89.57-1.8,1.09-2.73,1.58-.01.01-.01,0-.01,0-.47.24-.94.46-1.42.68-.33.15-.67.31-1.02.47h0c-2.04.9-4.45,1.81-6.41,1.13-.06-.02-.21-.1-.42-.24ZM337.82,476.06c-4.49,2.94-7.16,5.45-12.3,2.58-.71-.4-1.45-.88-2.2-1.43-.75-.55-1.51-1.17-2.28-1.86-6.63-5.92-13.46-16.29-13.46-23.46,0-4.66-.63-11.63,0-15.91.01-.08.14-.36.3-.69.11-.22.23-.45.36-.66.06-.1.12-.19.18-.27.06-.09.11-.16.16-.2.05-.05.1-.08.13-.07l22.8,13.64c.97-.26,1.93-.56,2.89-.89,3.67-1.28,7.27-3.05,10.87-4.83,2.96-1.47,5.93-2.94,8.92-4.13,2.34,14.73-3.78,29.95-16.37,38.18ZM450.13,439.69c1.05.51,2.19,1.08,3.39,1.67.01,0,.01.01.01.01.9.45,1.82.91,2.74,1.38,0,0,.01,0,.01.01,1.23.62,2.47,1.24,3.67,1.82.01,0,.01.01.01.01.6.29,1.19.57,1.76.84,1.72.8,3.28,1.47,4.52,1.88.99.33,1.77.49,2.26.42,2.79-.39,21.58-14.11,23.1-13.67.02,0,.04.01.05.02h0s.01.02.01.02c1.93,8.89,1.03,19.23-2.76,28.04,0,0,0,.01,0,.01-.35.83-.74,1.64-1.15,2.44-.82,1.6-1.74,3.14-2.76,4.6-.5.72-1.04,1.42-1.61,2.1-.01,0,0,.01,0,.01-.56.68-1.15,1.33-1.77,1.96-.61.64-1.25,1.24-1.92,1.82,0,0-.01-.01-.01,0-2,1.74-4.24,3.21-6.71,4.36-1.78.82-3.17.72-4.57.21-.11-.05-.22-.09-.33-.13-.22-.09-.44-.19-.66-.29-.34-.18-.68-.36-1.04-.55-.23-.12-.47-.25-.71-.38-.24-.14-.5-.28-.76-.42-.46-.24-.9-.49-1.34-.75-.87-.5-1.71-1.04-2.52-1.6-1.62-1.13-3.11-2.35-4.47-3.67-.67-.65-1.31-1.32-1.92-2.01-1.54-1.75-2.88-3.62-4.05-5.61-.45-.78-.88-1.58-1.28-2.39-.4-.82-.78-1.66-1.13-2.52-.52-1.28-.98-2.59-1.39-3.93-.27-.91-.51-1.82-.73-2.75-.21-.9-.4-1.82-.56-2.75-.17-.95-.31-1.91-.43-2.88-.35-2.98-.48-6.04-.39-9.14.41-.42,2.55.44,5.42,1.8h.01ZM368.18,453.8h.01l2.97.42,28.58,16.87h.01s30.54-17.3,30.54-17.3c-.69,1.99,1.41,2.07,1.58,3.36.31,2.34.31,9.88,0,12.22-.01.06-.04.21-.1.44,0,.03-.01.06-.02.09-.03.11-.07.24-.11.39-.05.18-.1.39-.17.62-.07.24-.14.5-.22.78-.08.28-.17.59-.27.91-.05.17-.1.35-.16.53-.27.96-.58,1.99-.85,2.92-.12.42-.24.82-.34,1.18-.08.27-.16.53-.22.76-.1.33-.18.61-.24.81-.29,1.04-.6,2.06-.93,3.06-.64,1.99-1.36,3.88-2.15,5.68-.39.9-.8,1.77-1.23,2.63-.65,1.29-1.33,2.53-2.06,3.72-.48.79-.99,1.57-1.52,2.33-1.58,2.27-3.34,4.37-5.3,6.33-4.25,4.24-9.43,7.81-15.73,10.96,0,.01-.01.01-.01.01-4.03-2.37-8.6-4.26-12.3-7.14-6.22-4.84-10.45-10.57-13.53-17.1,0,0,.01-.01,0-.01-1.86-3.91-3.3-8.11-4.52-12.58-.9-3.28-1.71-3.71-1.71-3.96v-18.93ZM437.68,534.27c-.54,3.27-1.36,6.46-2.43,9.54-.65,1.85-1.38,3.65-2.21,5.42h0c-.54,1.19-1.13,2.35-1.75,3.48-3.11,5.72-7.12,10.94-11.79,15.51-5.6,5.51-12.16,10.08-19.26,13.46-.63-.28-1.26-.58-1.88-.88-1.25-.6-2.5-1.25-3.72-1.93-1.84-1.02-3.64-2.13-5.39-3.32-3.51-2.38-6.81-5.08-9.76-8.07-1.97-1.98-3.79-4.1-5.43-6.33-10.65-14.52-14.81-32.5-11.94-50.55l38.12,21.87,37.63-21.87c1.2,7.76,1.08,15.91-.19,23.67ZM502.7,537.05c-.19.51-.37,1-.56,1.49-.66,1.67-1.42,3.17-2.4,4.63-.42.62-.88,1.23-1.38,1.85-.34.4-.7.81-1.08,1.23-.39.41-.8.83-1.24,1.25s-.9.84-1.39,1.28c-1,.87-2.11,1.78-3.37,2.74-2.58,1.97-3.54,3.19-4.65,3.58-1.24.44-2.69-.17-6.84-1.94-5.31-2.27-10.81-6.65-14.67-11.42-.01-.01,0-.01,0-.01-.59-.74-1.14-1.48-1.65-2.22,0,0,0-.01,0-.01-.25-.37-.49-.75-.72-1.12-.29-.48-.58-.96-.88-1.46-.3-.51-.59-1.03-.86-1.55-.57-1.05-1.12-2.13-1.67-3.24-.54-1.12-1.06-2.27-1.55-3.44-2.47-5.84-4.33-12.16-4.75-17.72-.14-1.88.05-3.79,0-5.67.03-.02.07-.05.12-.06.51-.15,2.24.32,4.58,1.13.82.28,1.71.6,2.65.94,0,0,0,.01.01.01.31.11.63.23.95.35.16.07.33.13.5.19.49.18.99.37,1.49.57t0,.01c.34.12.68.25,1.01.38,0,0,0,.01.01.01.34.13.68.26,1.02.4h.01c5.68,2.23,11.48,4.64,13.02,5.13.05-.02.11-.04.17-.05.44-.17,1.05-.48,1.79-.92.21-.12.43-.25.65-.39.59-.35,1.23-.76,1.92-1.21.27-.18.55-.36.83-.55.44-.29.89-.59,1.35-.9s.92-.62,1.4-.94h0c.32-.23.64-.45.96-.66h.01c.32-.24.65-.46.98-.68.17-.12.34-.23.51-.35.5-.34,1-.68,1.5-1.02.18-.12.35-.24.52-.36.5-.34,1-.68,1.5-1.01.17-.12.34-.23.51-.35.99-.67,1.97-1.32,2.91-1.92h.01c.93-.62,1.83-1.19,2.66-1.69,2.67-1.61,4.65-2.56,5.17-2.12h0c.26,1.12.46,2.28.63,3.46.05.39.11.79.17,1.18.11.78.22,1.57.34,2.34.06.39.13.78.2,1.16s.15.76.23,1.13c.03.16.13.26.26.35.07.04.15.08.23.11.13.05.26.11.38.18.08.04.17.1.24.18.04.03.08.07.11.11.04.04.07.09.1.14.07.1.12.22.15.36.02.07.04.15.05.23.39,3.03.39,12.98,0,16.01-.03.26-.1.45-.19.6h-.01c-.06.11-.13.2-.21.26-.37.33-.88.34-1.07.67-.01.04-.03.08-.04.12-1.01,3.72-1.77,6.68-2.66,9.22Z"/>
    <path class="st4" d="M437.87,510.6c1.2,7.76,1.08,15.91-.19,23.67-3.43,20.91-18.52,38.39-37.44,47.4-10.09-4.51-19.64-11.6-26.18-20.52-10.65-14.52-14.81-32.51-11.94-50.56l38.12,21.87,37.63-21.87h0Z"/>
    <path class="st4" d="M368.18,453.79l2.99.42,28.58,16.87,30.55-17.3c-.69,1.99,1.41,2.07,1.58,3.36.31,2.34.31,9.87,0,12.22-.07.55-2.22,7.68-2.7,9.43-4.69,16.71-13.4,26.95-28.93,34.72-4.03-2.38-8.6-4.26-12.3-7.14-9.95-7.75-14.8-17.76-18.05-29.69-.89-3.28-1.71-3.71-1.71-3.96v-18.94h0Z"/>
    <path class="st4" d="M503.78,499.24c.71,3.01.92,6.28,1.57,9.28.14.65,1.35.31,1.52,1.66.39,3.03.39,12.98,0,16.01-.18,1.36-1.34.97-1.52,1.65-3.22,11.9-4,15.99-14.07,23.68-5.48,4.18-3.63,5.01-11.5,1.65-6.53-2.79-13.37-8.8-17.04-14.78-4.69-7.66-9.04-18.52-9.71-27.41-.14-1.88.05-3.79,0-5.67,1.04-1.1,22.21,8.05,25.38,9.06,3.74-1.16,23.56-16.67,25.36-15.12h0Z"/>
    <path class="st4" d="M346.97,505.31c-.05,1.88.14,3.79,0,5.67-1.21,16.01-11.31,35.42-26.59,42.35-2.21,1-5.15,2.4-7.44,1.6-.44-.15-6.76-4.62-7.37-5.18-4.84-4.5-8.53-12.43-10.52-18.66-1.78-5.55-2.76-12.97-1.92-19.39.18-1.38,1.36-.96,1.54-1.63.85-3.16.63-7.52,2.32-10.82,1.41-1.02,21.35,14.69,25.37,15.1,3.11-1.01,23.5-10.21,24.62-9.03h-.01Z"/>
    <path class="st4" d="M491.66,434.09c3.56,16.44-2.5,37.83-18.69,45.34-3.17,1.47-5.15,0-8.06-1.55-15.15-8.07-20.67-23.47-20.22-40.01,1.31-1.35,20.22,10.36,23.8,9.85,2.83-.4,22.17-14.55,23.16-13.64h.01Z"/>
    <path class="st4" d="M307.58,435.98c.03-.21.9-1.96,1.13-1.89l22.8,13.64c7.75-2.05,15.11-6.83,22.68-9.85,2.34,14.73-3.78,29.95-16.37,38.18-4.49,2.94-7.16,5.45-12.3,2.58-7.6-4.25-17.94-17.93-17.94-26.75,0-4.66-.63-11.63,0-15.91h0Z"/>
    <path class="st4" d="M351.45,279.77c-.63-.65-1.29-1.27-1.98-1.87-1.39-1.19-2.89-2.31-4.52-3.32-1.22-.75-2.51-1.45-3.86-2.09-.91-.42-1.84-.82-2.8-1.19-.48-.18-.97-.35-1.47-.52-11.62-3.91-25.88-1.63-35.32,6.11-31.94,26.18.47,70.91,37.12,56.81,25.17-9.68,28.6-37.93,12.83-53.93ZM316.9,302.8c-.54-.48-1.82-2.79-2.11-3.57-6.87-18.49,24.34-22.05,23.58-4.26-.45,10.66-14.11,14.38-21.47,7.83Z"/>
    <path class="st4" d="M505.59,284.57c-23.41-31.83-74.16-11.23-65.07,26.8,3.07,12.84,18.03,23.95,31.08,24.98,11.7.92,22.78-3.7,30.34-11.22.21-.21.41-.41.61-.62.4-.41.79-.83,1.16-1.26.38-.43.74-.87,1.09-1.31.36-.44.7-.9,1.03-1.35.33-.46.65-.93.95-1.4.46-.71.9-1.43,1.3-2.16.13-.25.26-.49.39-.74.26-.5.5-1,.73-1.51.11-.25.22-.5.33-.76.22-.51.42-1.03.61-1.55.28-.78.53-1.57.74-2.37.14-.54.27-1.08.39-1.62,1.6-7.65.13-16.01-5.68-23.91ZM482.35,303.35c-.27.21-.55.42-.84.61-.3.19-.61.38-.93.55-1.12.61-2.4,1.08-3.85,1.38-1.66.35-3.19.42-4.58.28-.45-.05-.87-.11-1.29-.2-1.86-.4-3.45-1.22-4.75-2.32-.28-.24-.56-.5-.82-.77-5.69-5.93-4.35-17.79,5.74-19.34,1.34-.21,2.6-.27,3.78-.22.49.02.97.06,1.44.12.93.13,1.8.34,2.61.61.4.14.79.3,1.16.47.93.43,1.77.96,2.5,1.56.3.25.58.5.84.77,4.46,4.53,4.29,12.3-1.01,16.5Z"/>
    <path class="st4" d="M400.75,358.33c4-13.85,16.19-26.39,31.07-27.26l-31.44,56.8-30.67-55.68c-.58-1.9-.22-1.27.81-1.2,13.56.94,26.67,13.67,30.23,27.34h0Z"/>
    <path class="st0" d="M316.9,302.8c-.54-.48-1.82-2.79-2.11-3.57-6.87-18.49,24.34-22.05,23.58-4.26-.45,10.66-14.11,14.38-21.47,7.83h0Z"/>
    <path class="st0" d="M471.03,283.54c17.95-2.76,20.91,19.18,5.7,22.35-16.61,3.47-20.23-20.12-5.7-22.35Z"/>
  </g>
  <g id="Camada_3" class="st2">
    <path d="M261.12,162.98c.09.29,3.7,2.75,4.61,3.96,2.5,3.34,2.71,6.96.79,10.66-1.21,2.34-3.86,3.2-4.45,4.16-1.17,1.89,10.55,37.4,8.85,43.07-1.73,10.36-12.15,18.62-21.61,10.56-6.68-5.69-5.97-13.2-4.47-20.83,2.06-10.46,5.6-20.72,7.75-31.18.49-2.56-1.85-3.28-2.96-4.95-3.92-5.89-1.38-13.37,5.45-15.21l.15-48.89c-.14-.5-8.42-2.82-9.74-3.54-.77-.42-1.11.02-.84-1.47l151.89-47.39,3.06.11,151.99,47.61c.28,1.34-.51.93-1.32,1.29-23.71,10.48-50.55,17.7-74.76,27.37-51.82-9.42-102.96-9.31-154.77.03l-59.63-21.77v46.44-.03Z"/>
  </g>
</svg>